<?xml version="1.0" encoding="UTF-8" standalone="no"?><!DOCTYPE svg PUBLIC "-//W3C//DTD SVG 1.1//EN" "http://www.w3.org/Graphics/SVG/1.1/DTD/svg11.dtd"><svg width="100%" height="100%" viewBox="0 0 400 400" version="1.1" xmlns="http://www.w3.org/2000/svg" xmlns:xlink="http://www.w3.org/1999/xlink" xml:space="preserve" xmlns:serif="http://www.serif.com/" style="fill-rule:evenodd;clip-rule:evenodd;stroke-linecap:round;stroke-linejoin:round;stroke-miterlimit:1.5;"><path id="border" d="M372.5,70.58c0,-23.777 -19.303,-43.08 -43.08,-43.08l-258.84,0c-23.777,0 -43.08,19.303 -43.08,43.08l0,258.84c0,23.777 19.303,43.08 43.08,43.08l258.84,0c23.777,0 43.08,-19.303 43.08,-43.08l0,-258.84Z" style="fill:#fff;stroke:#e6e6e6;stroke-width:4.81px;"/><g id="CAREER-4"><text x="70.14px" y="149.334px" style="font-family:'ArialMT', 'Arial', sans-serif;font-size:58.333px;fill:#1d1d1d;">Carrière 4</text><path d="M76.045,302.5c0,0 12.177,-80.116 39.955,-81.5c24.918,-1.242 28.243,73.797 56,74.35c24.794,0.494 29.31,-64.837 49,-64.35c22.529,0.557 21.776,71.654 44,71.5c22.224,-0.154 19.099,-111.5 38.416,-111.5" style="fill:none;stroke:#3ea2ff;stroke-width:8.33px;stroke-linecap:square;"/><path d="M327.115,191.063l-22.699,14.953l0.084,-30.032l22.615,15.079Z" style="fill:#3ea2ff;"/></g></svg>